<?xml version="1.0" encoding="utf-8"?>
<!-- Generator: Adobe Illustrator 27.2.0, SVG Export Plug-In . SVG Version: 6.00 Build 0)  -->
<svg version="1.1" id="logo" xmlns="http://www.w3.org/2000/svg" xmlns:xlink="http://www.w3.org/1999/xlink" x="0px" y="0px"
	 viewBox="0 0 1046.6 404.6" style="enable-background:new 0 0 1046.6 404.6;" xml:space="preserve">
<style type="text/css">
	.st0{fill:#FFFFFF;stroke:#FFFFFF;stroke-miterlimit:10;}
	.st1{fill:#231F20;stroke:#231F20;stroke-miterlimit:10;}
</style>
<rect x="-2.4" y="-1.8" class="st0" width="1052.5" height="409.7"/>
<path class="st1" d="M268.1,202.3c0,37.2-30.3,67.4-67.4,67.4c-16.9,0-33.1-6.3-45.6-17.7c-11.4-10.4-18.7-24.3-21.1-39.4h20
	c4.8,21.6,24,37.4,46.6,37.4c26.3,0,47.7-21.4,47.7-47.7c0-26.3-21.4-47.7-47.7-47.7c-22.2,0-41.2,15.2-46.3,36.3h-20.1
	c2.5-14.7,9.8-28.1,20.9-38.3c12.5-11.4,28.6-17.7,45.6-17.7C237.9,134.9,268.1,165.1,268.1,202.3z M576.7,267.6h20.6V137.1h-20.6
	V267.6z M363.6,137.1h-65.9v130.5h20.6V156.2h41.7c18.6,0,28,6.2,28,18.9c0,14.7-15.2,18.4-28,18.4H340v19.2h24.1
	c12.6,0,23.6-3.2,31.5-9.4c8.6-6.6,13.2-16.7,13.2-28.1C408.8,152.2,390.7,137.1,363.6,137.1z M476.4,267.6H497v-94.7h-20.6V267.6z
	 M429.2,137.1h115v19.2h-115V137.1z M849.5,137.1h-18.9l-63.1,130.5h22.2l50.4-104.1l23.9,49.2H838l-9.2,19.2h44.5l17.2,35.7h22.2
	L849.5,137.1z M742.6,217.2c-6.3,19.2-24.4,32.8-45.3,32.8c-26.3,0-47.7-21.4-47.7-47.7c0-26.3,21.4-47.7,47.7-47.7
	c20.4,0,38,12.8,44.8,31.2h20.6c-3.2-12.7-10-24.2-19.8-33.1c-12.5-11.4-28.6-17.7-45.6-17.7c-37.2,0-67.4,30.3-67.4,67.4
	c0,37.2,30.3,67.4,67.4,67.4c16.9,0,33.1-6.3,45.6-17.7c10.2-9.4,17.2-21.5,20.2-34.8H742.6z"/>
</svg>
